<svg xmlns="http://www.w3.org/2000/svg" width="900" height="900" viewBox="0 0 900 900" role="img" aria-label="荷小悦营养膳食">
  <defs>
    <linearGradient id="bg" x1="0" y1="0" x2="1" y2="1">
      <stop offset="0" stop-color="#fbfdfb"/>
      <stop offset="1" stop-color="#e1f2e9"/>
    </linearGradient>
    <filter id="shadow" x="-20%" y="-20%" width="140%" height="140%">
      <feDropShadow dx="0" dy="24" stdDeviation="24" flood-color="#235d44" flood-opacity=".14"/>
    </filter>
  </defs>
  <rect width="900" height="900" fill="url(#bg)"/>
  <circle cx="166" cy="184" r="138" fill="#d4eddf" opacity=".55"/>
  <circle cx="724" cy="704" r="172" fill="#ffffff" opacity=".62"/>
  <g filter="url(#shadow)">
    <ellipse cx="450" cy="542" rx="250" ry="122" fill="#ffffff"/>
    <path d="M216 529c32 118 117 178 234 178s202-60 234-178" fill="#edf8f1"/>
    <ellipse cx="450" cy="522" rx="232" ry="102" fill="#ffffff"/>
    <ellipse cx="450" cy="512" rx="192" ry="72" fill="#f4ead4"/>
    <circle cx="377" cy="492" r="20" fill="#b9473c" opacity=".88"/>
    <circle cx="507" cy="520" r="24" fill="#e7d6ab"/>
    <circle cx="454" cy="475" r="18" fill="#b9473c" opacity=".76"/>
    <path d="M282 606h336" stroke="#d2e8da" stroke-width="18" stroke-linecap="round"/>
  </g>
  <path d="M346 334c68-31 140-31 208 0" fill="none" stroke="#32765d" stroke-width="18" stroke-linecap="round"/>
  <path d="M386 284c39-20 89-20 128 0" fill="none" stroke="#83bd9d" stroke-width="14" stroke-linecap="round"/>
  <text x="450" y="132" text-anchor="middle" fill="#1f4d3d" font-family="Arial, sans-serif" font-size="46" font-weight="800">补</text>
  <text x="450" y="815" text-anchor="middle" fill="#4c6f61" font-family="Arial, sans-serif" font-size="30" font-weight="700">营养膳食</text>
</svg>
