<svg xmlns="http://www.w3.org/2000/svg" width="900" height="900" viewBox="0 0 900 900" role="img" aria-label="荷小悦带走养生">
  <defs>
    <linearGradient id="bg" x1="0" y1="0" x2="1" y2="1">
      <stop offset="0" stop-color="#f9fcfa"/>
      <stop offset="1" stop-color="#dceddf"/>
    </linearGradient>
    <filter id="shadow" x="-20%" y="-20%" width="140%" height="140%">
      <feDropShadow dx="0" dy="24" stdDeviation="24" flood-color="#235d44" flood-opacity=".14"/>
    </filter>
  </defs>
  <rect width="900" height="900" fill="url(#bg)"/>
  <circle cx="692" cy="218" r="164" fill="#ffffff" opacity=".58"/>
  <circle cx="189" cy="693" r="170" fill="#cfe9dc" opacity=".5"/>
  <g filter="url(#shadow)">
    <rect x="296" y="300" width="308" height="402" rx="42" fill="#ffffff"/>
    <rect x="326" y="349" width="248" height="276" rx="28" fill="#eef8f3"/>
    <path d="M367 411h166M367 464h166M367 517h116" stroke="#8cbda5" stroke-width="18" stroke-linecap="round"/>
    <path d="M381 663h138" stroke="#d2e8da" stroke-width="18" stroke-linecap="round"/>
    <path d="M375 300c5-68 37-102 75-102s70 34 75 102" fill="none" stroke="#32765d" stroke-width="22" stroke-linecap="round"/>
  </g>
  <path d="M621 392c50-24 89-18 121 18-24 52-68 73-132 60 0-33 4-59 11-78z" fill="#77b994" opacity=".82"/>
  <path d="M653 422c29 6 55 4 79-8" fill="none" stroke="#ffffff" stroke-width="10" stroke-linecap="round"/>
  <text x="450" y="132" text-anchor="middle" fill="#1f4d3d" font-family="Arial, sans-serif" font-size="46" font-weight="800">养</text>
  <text x="450" y="815" text-anchor="middle" fill="#4c6f61" font-family="Arial, sans-serif" font-size="30" font-weight="700">带走养生</text>
</svg>
