<svg xmlns="http://www.w3.org/2000/svg" width="900" height="900" viewBox="0 0 900 900" role="img" aria-label="荷小悦茶饮系列">
  <defs>
    <linearGradient id="bg" x1="0" y1="0" x2="1" y2="1">
      <stop offset="0" stop-color="#f7fbf8"/>
      <stop offset="1" stop-color="#dcefe5"/>
    </linearGradient>
    <filter id="shadow" x="-20%" y="-20%" width="140%" height="140%">
      <feDropShadow dx="0" dy="24" stdDeviation="22" flood-color="#235d44" flood-opacity=".15"/>
    </filter>
  </defs>
  <rect width="900" height="900" fill="url(#bg)"/>
  <circle cx="710" cy="170" r="150" fill="#ffffff" opacity=".48"/>
  <circle cx="150" cy="730" r="190" fill="#cbe8d8" opacity=".45"/>
  <g filter="url(#shadow)">
    <path d="M288 330h324l-38 318c-8 69-43 102-111 102h-26c-68 0-103-33-111-102z" fill="#ffffff"/>
    <path d="M306 348h288l-33 282c-7 55-34 81-86 81h-50c-52 0-79-26-86-81z" fill="#f1faf5"/>
    <path d="M342 424h216l-18 154c-5 43-28 66-69 66h-42c-41 0-64-23-69-66z" fill="#8ec7aa" opacity=".72"/>
    <path d="M611 390h45c55 0 86 34 79 82-7 50-47 80-101 80h-40l8-62h32c24 0 39-9 42-26 3-18-9-29-33-29h-37z" fill="#ffffff"/>
  </g>
  <path d="M331 291c49-32 84-34 132-5 43 25 76 25 120-3" fill="none" stroke="#32765d" stroke-width="18" stroke-linecap="round"/>
  <path d="M392 244c28-20 53-21 79-2" fill="none" stroke="#6fb390" stroke-width="14" stroke-linecap="round"/>
  <text x="450" y="132" text-anchor="middle" fill="#1f4d3d" font-family="Arial, sans-serif" font-size="46" font-weight="800">清</text>
  <text x="450" y="815" text-anchor="middle" fill="#4c6f61" font-family="Arial, sans-serif" font-size="30" font-weight="700">茶饮系列</text>
</svg>
